<?xml version="1.0" standalone="no"?>
<!DOCTYPE svg PUBLIC "-//W3C//DTD SVG 20010904//EN"
 "http://www.w3.org/TR/2001/REC-SVG-20010904/DTD/svg10.dtd">
<svg version="1.0" xmlns="http://www.w3.org/2000/svg"
 width="726.000000pt" height="726.000000pt" viewBox="0 0 726.000000 726.000000"
 preserveAspectRatio="xMidYMid meet">
<metadata>
Created by potrace 1.11, written by Peter Selinger 2001-2013
</metadata>
<g transform="translate(0.000000,726.000000) scale(0.100000,-0.100000)"
fill="#000000" stroke="none">
<path d="M2950 7190 c0 -5 -18 -10 -40 -10 -22 0 -40 -4 -40 -10 0 -5 -18 -10
-40 -10 -22 0 -40 -4 -40 -10 0 -5 -9 -10 -20 -10 -11 0 -20 -4 -20 -10 0 -5
-13 -10 -30 -10 -16 0 -30 -4 -30 -10 0 -5 -9 -10 -20 -10 -11 0 -20 -4 -20
-10 0 -5 -8 -10 -18 -10 -10 0 -24 -9 -32 -20 -8 -11 -21 -20 -28 -20 -8 0
-27 -13 -42 -30 -15 -16 -33 -30 -39 -30 -16 0 -161 -147 -161 -163 0 -7 -9
-19 -20 -27 -11 -8 -20 -22 -20 -32 0 -10 -4 -18 -10 -18 -5 0 -10 -9 -10 -20
0 -11 -4 -20 -10 -20 -5 0 -10 -9 -10 -20 0 -11 -4 -20 -10 -20 -5 0 -10 -9
-10 -20 0 -11 -4 -20 -10 -20 -5 0 -10 -13 -10 -30 0 -16 -4 -30 -10 -30 -5 0
-10 -18 -10 -40 0 -22 -4 -40 -10 -40 -6 0 -10 -43 -10 -110 0 -67 -4 -110
-10 -110 -5 0 -10 -9 -10 -20 0 -11 5 -20 10 -20 6 0 10 -40 10 -100 0 -60 4
-100 10 -100 6 0 10 -18 10 -40 0 -22 5 -40 10 -40 6 0 10 -13 10 -30 0 -16 5
-30 10 -30 6 0 10 -13 10 -30 0 -16 5 -30 10 -30 6 0 10 -13 10 -30 0 -16 5
-30 10 -30 6 0 10 -9 10 -20 0 -11 5 -20 10 -20 6 0 10 -8 10 -18 0 -10 9 -24
20 -32 11 -8 20 -21 20 -30 0 -9 9 -22 20 -30 11 -8 20 -21 20 -30 0 -9 9 -22
20 -30 11 -8 20 -22 20 -32 0 -17 -20 -18 -320 -18 -207 0 -320 -4 -320 -10 0
-6 -30 -10 -70 -10 -40 0 -70 -4 -70 -10 0 -5 -9 -10 -20 -10 -18 0 -20 -7
-20 -70 0 -40 -4 -70 -10 -70 -6 0 -10 -60 -10 -160 0 -100 4 -160 10 -160 6
0 10 -21 10 -46 0 -52 16 -74 54 -74 14 0 26 -4 26 -10 0 -7 257 -10 750 -10
l750 0 0 -1430 c0 -786 -2 -1430 -5 -1430 -12 0 -55 50 -55 62 0 8 -9 20 -20
28 -11 8 -20 22 -20 32 0 10 -4 18 -10 18 -5 0 -10 9 -10 20 0 11 -4 20 -10
20 -5 0 -10 14 -10 30 0 17 -4 30 -10 30 -6 0 -10 27 -10 60 0 33 4 60 10 60
6 0 10 14 10 30 0 17 5 30 10 30 6 0 10 14 10 30 0 17 5 30 10 30 6 0 10 9 10
20 0 11 5 20 10 20 6 0 10 14 10 30 0 17 5 30 10 30 6 0 10 14 10 30 0 17 5
30 10 30 6 0 10 18 10 40 0 22 5 40 10 40 6 0 10 70 10 190 0 183 -1 190 -20
190 -11 0 -20 -4 -20 -10 0 -6 -29 -10 -66 -10 -60 0 -68 -3 -94 -30 -15 -16
-33 -30 -39 -30 -15 0 -161 -146 -161 -161 0 -6 -18 -28 -40 -49 -22 -21 -40
-46 -40 -54 0 -9 -4 -16 -10 -16 -5 0 -10 -9 -10 -20 0 -11 -4 -20 -10 -20 -5
0 -10 -9 -10 -20 0 -11 -4 -20 -10 -20 -5 0 -10 -9 -10 -20 0 -11 -4 -20 -10
-20 -5 0 -10 -13 -10 -30 0 -16 -4 -30 -10 -30 -5 0 -10 -18 -10 -40 0 -22 -4
-40 -10 -40 -6 0 -10 -50 -10 -130 0 -80 4 -130 10 -130 6 0 10 -18 10 -40 0
-22 5 -40 10 -40 6 0 10 -13 10 -30 0 -16 5 -30 10 -30 6 0 10 -9 10 -20 0
-11 5 -20 10 -20 6 0 10 -9 10 -20 0 -11 5 -20 10 -20 6 0 10 -8 10 -18 0 -10
9 -24 20 -32 11 -8 20 -20 20 -27 0 -17 186 -203 203 -203 7 0 19 -9 27 -20 8
-11 22 -20 32 -20 10 0 18 -4 18 -10 0 -5 9 -10 20 -10 11 0 20 -4 20 -10 0
-5 9 -10 20 -10 11 0 20 -4 20 -10 0 -5 11 -10 25 -10 42 0 75 -41 75 -95 0
-25 -4 -45 -10 -45 -5 0 -10 9 -10 20 0 11 -4 20 -10 20 -5 0 -10 7 -10 16 0
19 -24 44 -42 44 -8 0 -20 9 -28 20 -8 11 -22 20 -32 20 -10 0 -18 5 -18 10 0
6 -9 10 -20 10 -11 0 -20 5 -20 10 0 6 -33 10 -80 10 -70 0 -80 -2 -80 -18 0
-10 -9 -24 -20 -32 -19 -13 -20 -26 -20 -192 0 -112 4 -178 10 -178 6 0 10
-13 10 -30 0 -16 5 -30 10 -30 6 0 10 -9 10 -20 0 -11 5 -20 10 -20 6 0 10 -9
10 -20 0 -11 5 -20 10 -20 6 0 10 -7 10 -15 0 -20 165 -185 185 -185 8 0 15
-4 15 -10 0 -5 7 -10 15 -10 20 0 65 -45 65 -65 0 -8 5 -15 10 -15 6 0 10 -18
10 -40 0 -22 5 -40 10 -40 6 0 10 -47 10 -120 0 -73 -4 -120 -10 -120 -5 0
-10 -13 -10 -30 0 -16 5 -30 10 -30 6 0 10 -22 10 -50 0 -27 5 -50 10 -50 6 0
10 -9 10 -20 0 -11 5 -20 10 -20 6 0 10 -7 10 -15 0 -9 11 -27 25 -40 l24 -25
236 0 c150 0 235 4 235 10 0 6 23 10 50 10 28 0 50 5 50 10 0 6 18 10 40 10
l40 0 0 100 c0 60 4 100 10 100 6 0 10 47 10 120 0 73 4 120 10 120 6 0 10 -4
10 -10 0 -5 23 -10 50 -10 28 0 50 -4 50 -10 0 -5 18 -10 40 -10 22 0 40 -4
40 -10 0 -5 23 -10 50 -10 28 0 50 -4 50 -10 0 -6 30 -10 70 -10 l70 0 0 40
c0 22 -4 40 -10 40 -5 0 -10 8 -10 18 0 10 -9 24 -20 32 -11 8 -20 20 -20 28
0 17 -25 42 -42 42 -8 0 -20 9 -28 20 -8 11 -22 20 -32 20 -10 0 -18 5 -18 10
0 6 -9 10 -20 10 -11 0 -20 5 -20 10 0 6 -13 10 -30 10 -16 0 -30 5 -30 10 0
6 -18 10 -40 10 -22 0 -40 5 -40 10 0 6 -18 10 -40 10 l-40 0 0 305 0 306 25
24 c13 14 30 25 37 25 8 0 20 9 28 20 8 12 26 20 42 20 15 0 28 5 28 10 0 6 9
10 20 10 11 0 20 5 20 10 0 6 13 10 28 10 16 0 34 8 42 20 8 11 22 20 32 20
10 0 18 5 18 10 0 6 8 10 18 10 10 0 24 9 32 20 8 11 20 20 27 20 17 0 183
166 183 183 0 7 9 19 20 27 11 8 20 22 20 32 0 10 5 18 10 18 6 0 10 9 10 20
0 11 5 20 10 20 6 0 10 9 10 20 0 11 5 20 10 20 6 0 10 14 10 30 0 17 5 30 10
30 6 0 10 18 10 40 0 22 5 40 10 40 6 0 10 18 10 40 0 22 -4 40 -10 40 -5 0
-10 18 -10 40 0 22 -4 40 -10 40 -5 0 -10 9 -10 20 0 11 -4 20 -10 20 -5 0
-10 8 -10 18 0 10 -9 24 -20 32 -11 8 -20 20 -20 28 0 17 -45 62 -62 62 -8 0
-20 9 -28 20 -8 11 -22 20 -32 20 -10 0 -18 5 -18 10 0 6 -9 10 -20 10 -11 0
-20 5 -20 10 0 6 -13 10 -30 10 -16 0 -30 5 -30 10 0 6 -18 10 -40 10 -22 0
-40 5 -40 10 0 6 -27 10 -60 10 -33 0 -60 -4 -60 -10 0 -5 -22 -10 -50 -10
-27 0 -50 -4 -50 -10 0 -5 -18 -10 -40 -10 l-40 0 0 60 c0 33 4 60 10 60 6 0
10 14 10 30 0 17 5 30 10 30 6 0 10 -4 10 -10 0 -5 23 -10 50 -10 28 0 50 5
50 10 0 6 14 10 30 10 17 0 30 5 30 10 0 6 9 10 20 10 11 0 20 5 20 10 0 6 9
10 20 10 11 0 20 5 20 10 0 6 9 10 20 10 11 0 20 5 20 10 0 6 8 10 18 10 10 0
24 9 32 20 8 11 21 20 30 20 9 0 22 9 30 20 8 11 21 20 28 20 7 0 31 18 52 40
21 22 43 40 49 40 15 0 161 146 161 161 0 6 18 28 40 49 22 21 40 45 40 52 0
7 9 20 20 28 11 8 20 21 20 30 0 9 9 22 20 30 11 8 20 22 20 32 0 10 5 18 10
18 6 0 10 9 10 20 0 11 5 20 10 20 6 0 10 9 10 20 0 11 5 20 10 20 6 0 10 9
10 20 0 11 5 20 10 20 6 0 10 14 10 30 0 17 5 30 10 30 6 0 10 9 10 20 0 11 5
20 10 20 6 0 10 14 10 30 0 17 5 30 10 30 6 0 10 14 10 30 0 17 5 30 10 30 6
0 10 23 10 50 0 28 5 50 10 50 6 0 10 27 10 60 0 33 4 60 10 60 6 0 10 70 10
190 0 120 -4 190 -10 190 -6 0 -10 27 -10 60 0 33 -4 60 -10 60 -5 0 -10 14
-10 30 0 17 -4 30 -10 30 -5 0 -10 9 -10 20 0 11 -4 20 -10 20 -5 0 -10 8 -10
18 0 10 -9 24 -20 32 -11 8 -20 22 -20 32 0 10 -4 18 -10 18 -5 0 -10 9 -10
20 0 11 -4 20 -10 20 -5 0 -10 9 -10 20 0 11 -4 20 -10 20 -5 0 -10 5 -10 10
0 6 14 10 30 10 17 0 30 5 30 10 0 6 37 10 90 10 53 0 90 -4 90 -10 0 -6 30
-10 70 -10 40 0 70 4 70 10 0 6 42 10 105 10 99 0 107 2 130 25 14 13 25 31
25 40 0 8 5 15 10 15 6 0 10 9 10 20 0 11 5 20 10 20 6 0 10 30 10 70 0 40 4
70 10 70 6 0 10 9 10 20 0 11 -4 20 -10 20 -6 0 -10 40 -10 100 0 60 -4 100
-10 100 -5 0 -10 9 -10 20 0 11 -4 20 -10 20 -5 0 -10 9 -10 20 0 13 -7 20
-18 20 -10 0 -24 9 -32 20 -14 20 -26 20 -1042 20 -679 0 -1028 -3 -1028 -10
0 -5 -18 -10 -40 -10 -22 0 -40 5 -40 10 0 6 -29 10 -68 10 -56 0 -70 3 -82
20 -8 11 -22 20 -32 20 -10 0 -18 5 -18 10 0 6 -9 10 -20 10 -11 0 -20 5 -20
10 0 6 -8 10 -18 10 -10 0 -24 9 -32 20 -8 11 -21 20 -28 20 -7 0 -31 18 -52
40 -21 22 -43 40 -49 40 -15 0 -121 106 -121 121 0 6 -13 24 -30 39 -16 15
-30 35 -30 44 0 9 -4 16 -10 16 -5 0 -10 9 -10 20 0 11 -4 20 -10 20 -5 0 -10
9 -10 20 0 11 -4 20 -10 20 -5 0 -10 9 -10 20 0 11 -4 20 -10 20 -5 0 -10 18
-10 40 0 22 -4 40 -10 40 -6 0 -10 53 -10 140 0 87 4 140 10 140 6 0 10 18 10
40 0 22 5 40 10 40 6 0 10 18 10 40 0 22 5 40 10 40 6 0 10 9 10 20 0 11 5 20
10 20 6 0 10 8 10 18 0 10 9 24 20 32 11 8 20 20 20 27 0 19 126 143 145 143
8 0 15 5 15 10 0 6 9 10 20 10 11 0 20 5 20 10 0 6 9 10 20 10 11 0 20 5 20
10 0 6 53 10 140 10 87 0 140 -4 140 -10 0 -5 14 -10 30 -10 17 0 30 -4 30
-10 0 -5 9 -10 20 -10 11 0 20 -4 20 -10 0 -5 8 -10 18 -10 10 0 24 -9 32 -20
8 -11 20 -20 27 -20 17 0 103 -86 103 -103 0 -7 9 -19 20 -27 11 -8 20 -22 20
-32 0 -10 5 -18 10 -18 6 0 10 -13 10 -30 0 -16 5 -30 10 -30 22 0 9 -53 -20
-80 -16 -15 -30 -34 -30 -42 0 -7 -9 -20 -20 -28 -11 -8 -20 -22 -20 -32 0
-10 -4 -18 -10 -18 -5 0 -10 -9 -10 -20 0 -11 -4 -20 -10 -20 -6 0 -10 -40
-10 -100 0 -60 4 -100 10 -100 6 0 10 -13 10 -30 0 -16 5 -30 10 -30 6 0 10
-13 10 -30 0 -16 5 -30 10 -30 6 0 10 -9 10 -20 0 -11 5 -20 10 -20 6 0 10 -8
10 -18 0 -10 9 -24 20 -32 11 -8 20 -21 20 -30 0 -9 9 -22 20 -30 11 -8 20
-20 20 -28 0 -7 23 -35 50 -62 28 -27 50 -56 50 -64 0 -9 9 -16 20 -16 11 0
20 -4 20 -10 0 -5 14 -10 30 -10 17 0 30 -4 30 -10 0 -5 16 -10 35 -10 37 0
85 35 85 62 0 8 9 20 20 28 11 8 20 22 20 32 0 10 5 18 10 18 6 0 10 9 10 20
0 11 5 20 10 20 6 0 10 9 10 20 0 11 5 20 10 20 6 0 10 14 10 30 0 17 5 30 10
30 6 0 10 14 10 30 0 17 5 30 10 30 6 0 10 27 10 60 0 33 4 60 10 60 6 0 10
47 10 120 0 73 -4 120 -10 120 -5 0 -10 9 -10 20 0 11 -4 20 -10 20 -5 0 -10
7 -10 16 0 8 -27 42 -60 74 -33 32 -60 66 -60 74 0 9 -4 16 -10 16 -5 0 -10 9
-10 20 0 11 -4 20 -10 20 -5 0 -10 14 -10 30 0 17 -4 30 -10 30 -5 0 -10 14
-10 30 0 17 -4 30 -10 30 -5 0 -10 14 -10 30 0 17 -4 30 -10 30 -5 0 -10 9
-10 20 0 11 -4 20 -10 20 -5 0 -10 9 -10 20 0 11 -4 20 -10 20 -5 0 -10 8 -10
18 0 10 -9 24 -20 32 -11 8 -20 21 -20 28 0 8 -13 27 -30 42 -16 15 -30 35
-30 44 0 9 -7 16 -16 16 -8 0 -33 18 -54 40 -21 22 -46 40 -54 40 -9 0 -16 5
-16 10 0 6 -9 10 -20 10 -11 0 -20 5 -20 10 0 6 -9 10 -20 10 -11 0 -20 5 -20
10 0 6 -9 10 -20 10 -11 0 -20 5 -20 10 0 6 -13 10 -30 10 -16 0 -30 5 -30 10
0 6 -18 10 -40 10 -22 0 -40 5 -40 10 0 6 -57 10 -150 10 -93 0 -150 -4 -150
-10z m1020 -2440 c0 -5 9 -10 20 -10 11 0 20 -4 20 -10 0 -5 9 -10 20 -10 11
0 20 -4 20 -10 0 -5 9 -10 20 -10 11 0 20 -4 20 -10 0 -5 9 -10 20 -10 11 0
20 -4 20 -10 0 -5 8 -10 18 -10 10 0 24 -9 32 -20 8 -11 21 -20 28 -20 8 0 27
-13 42 -30 15 -16 35 -30 44 -30 9 0 16 -7 16 -16 0 -9 14 -29 30 -44 18 -17
30 -38 30 -54 0 -14 5 -26 10 -26 6 0 10 -87 10 -240 0 -153 -4 -240 -10 -240
-5 0 -10 -22 -10 -50 0 -27 -4 -50 -10 -50 -5 0 -10 -13 -10 -30 0 -16 -4 -30
-10 -30 -5 0 -10 -13 -10 -30 0 -16 -4 -30 -10 -30 -5 0 -10 -9 -10 -20 0 -11
-4 -20 -10 -20 -5 0 -10 -7 -10 -15 0 -17 -204 -225 -220 -225 -6 0 -38 -27
-70 -60 -79 -80 -90 -79 -90 10 0 40 -4 70 -10 70 -7 0 -10 197 -10 570 0 373
3 570 10 570 6 0 10 27 10 60 0 33 4 60 10 60 6 0 10 9 10 20 0 13 7 20 20 20
11 0 20 -4 20 -10z"/>
</g>
</svg>
