<?xml version="1.0" encoding="UTF-8" ?>
<!DOCTYPE svg PUBLIC "-//W3C//DTD SVG 1.1//EN" "http://www.w3.org/Graphics/SVG/1.1/DTD/svg11.dtd">
<svg width="465pt" height="145pt" viewBox="0 0 465 145" version="1.1" xmlns="http://www.w3.org/2000/svg">
<path fill="#ffffff" d=" M 0.00 0.00 L 465.00 0.00 L 465.00 145.00 L 0.00 145.00 L 0.00 0.00 Z" />
<path fill="#52bf16" d=" M 16.10 16.90 C 18.02 5.33 33.28 -1.65 43.17 4.77 C 46.81 6.95 48.59 10.99 49.69 14.90 C 50.25 17.42 53.47 18.44 53.59 21.11 C 53.85 25.81 52.87 31.02 49.52 34.53 C 48.27 34.27 46.78 34.30 45.97 33.13 C 43.46 30.24 41.09 26.86 40.77 22.92 C 40.60 20.50 42.32 18.61 43.84 16.97 C 42.72 9.90 32.32 5.90 27.27 11.44 C 23.66 14.70 22.91 20.02 23.55 24.60 C 24.91 30.50 30.02 34.55 35.21 37.10 C 43.87 41.40 54.12 40.64 62.64 45.37 C 65.57 46.92 67.85 49.39 69.89 51.95 C 72.69 55.27 72.81 59.84 72.59 63.97 C 72.36 74.01 66.52 83.63 57.83 88.64 C 55.83 89.69 53.63 91.32 51.24 90.39 C 51.59 87.28 51.46 84.15 50.93 81.08 C 53.35 78.76 56.30 76.96 58.34 74.27 C 60.95 70.00 60.98 64.77 60.66 59.94 C 60.58 54.95 54.81 53.44 51.30 51.30 C 45.88 48.35 39.55 47.97 34.05 45.23 C 30.31 43.31 25.82 42.39 23.00 39.04 C 21.94 37.86 20.99 36.58 20.07 35.29 C 16.20 30.10 14.90 23.21 16.10 16.90 Z" />
<path fill="#838882" d=" M 20.07 35.29 C 20.99 36.58 21.94 37.86 23.00 39.04 C 25.82 42.39 30.31 43.31 34.05 45.23 C 39.55 47.97 45.88 48.35 51.30 51.30 C 49.97 55.76 50.83 60.46 50.63 65.04 C 50.77 70.38 50.28 75.76 50.93 81.08 C 51.46 84.15 51.59 87.28 51.24 90.39 C 50.23 91.53 50.66 93.19 50.45 94.59 C 50.80 94.52 51.50 94.38 51.85 94.32 C 52.28 94.23 53.14 94.07 53.57 93.99 C 52.15 95.78 51.28 97.87 51.10 100.16 L 50.68 99.67 C 50.85 102.17 49.72 105.22 51.60 107.28 C 46.78 110.18 40.23 110.00 35.40 107.22 C 35.43 100.42 35.97 93.60 35.64 86.81 C 35.63 86.46 35.61 85.78 35.60 85.44 C 35.44 73.51 35.75 61.57 35.45 49.64 C 26.96 49.92 18.48 49.65 9.99 49.79 C 7.95 49.74 5.81 49.92 3.87 49.14 C 2.86 45.39 3.33 41.48 3.72 37.68 C 9.18 36.45 14.82 37.27 20.36 37.06 C 20.29 36.62 20.14 35.73 20.07 35.29 Z" />
<path fill="#838882" d=" M 35.21 37.10 C 38.78 37.74 42.37 36.94 45.96 37.03 C 57.00 37.07 68.05 37.02 79.09 37.07 C 81.06 36.73 82.61 38.39 82.74 40.27 C 83.13 43.30 83.48 46.97 81.29 49.44 C 77.25 50.00 73.15 49.53 69.09 49.73 C 69.29 50.28 69.69 51.39 69.89 51.95 C 67.85 49.39 65.57 46.92 62.64 45.37 C 54.12 40.64 43.87 41.40 35.21 37.10 Z" />
<path fill="#52bf16" d=" M 203.84 46.76 C 207.86 41.05 215.41 39.61 221.96 39.91 C 225.15 40.36 228.78 40.39 231.34 42.60 C 233.15 45.37 232.26 48.91 231.93 51.98 C 227.59 51.74 223.47 49.59 219.06 50.42 C 215.37 50.63 212.98 54.20 212.35 57.53 C 211.45 62.59 211.47 67.78 211.66 72.91 C 217.07 73.02 222.50 72.76 227.90 73.21 C 228.84 76.16 228.71 79.26 228.31 82.29 C 222.81 84.03 217.05 82.30 211.46 83.28 C 211.58 102.95 211.52 122.62 211.48 142.29 C 207.60 143.11 203.59 143.13 199.68 142.52 C 199.48 140.70 199.34 138.86 199.33 137.02 C 199.31 119.08 199.37 101.13 199.30 83.19 C 195.74 83.04 192.07 83.46 188.60 82.48 C 187.04 79.94 187.12 76.02 188.48 73.50 C 191.92 72.32 195.81 73.47 199.40 72.70 C 199.30 63.96 198.52 54.29 203.84 46.76 Z" />
<path fill="#ffffff" d=" M 50.63 65.04 C 50.83 60.46 49.97 55.76 51.30 51.30 C 54.81 53.44 60.58 54.95 60.66 59.94 C 60.98 64.77 60.95 70.00 58.34 74.27 C 56.30 76.96 53.35 78.76 50.93 81.08 C 50.28 75.76 50.77 70.38 50.63 65.04 Z" />
<path fill="#838882" d=" M 104.40 72.53 C 108.20 71.59 112.30 71.77 116.03 72.94 C 117.11 73.35 118.66 73.64 118.62 75.12 C 119.05 78.44 118.85 81.82 118.17 85.09 C 113.38 84.50 108.14 81.56 103.57 84.50 C 98.80 87.87 95.11 92.84 92.62 98.05 C 92.27 112.33 92.71 126.63 92.42 140.92 C 92.53 142.32 90.83 142.63 89.79 142.84 C 86.77 143.16 83.54 143.38 80.66 142.24 C 79.82 141.00 80.05 139.43 79.96 138.01 C 80.03 119.34 79.99 100.67 79.99 82.00 C 80.04 79.41 79.72 76.76 80.33 74.22 C 81.66 72.57 84.07 73.09 85.93 72.92 C 87.71 73.09 90.78 72.58 91.14 75.03 C 91.45 78.01 91.23 81.02 91.23 84.02 C 94.95 79.56 98.63 74.41 104.40 72.53 Z" />
<path fill="#838882" d=" M 130.12 78.19 C 138.99 72.50 150.03 71.06 160.34 72.38 C 165.37 73.19 170.55 75.06 173.92 79.07 C 178.21 83.89 178.96 90.71 179.02 96.90 C 179.01 110.58 178.98 124.25 179.04 137.93 C 178.95 139.41 179.12 141.02 178.34 142.36 C 175.33 143.28 171.76 143.57 168.84 142.24 C 167.83 140.04 168.39 137.47 168.14 135.14 C 162.35 140.59 154.94 143.94 147.04 144.86 C 141.04 143.67 134.50 142.54 129.96 138.05 C 124.64 132.77 123.48 124.41 125.46 117.41 C 127.55 110.41 134.15 105.77 140.95 103.98 C 149.31 101.28 158.16 102.19 166.79 101.91 C 166.76 96.46 167.23 90.11 163.19 85.82 C 158.36 81.23 150.94 81.81 144.89 82.93 C 139.15 83.92 134.71 88.45 128.94 89.13 C 127.65 85.65 126.80 80.83 130.12 78.19 Z" />
<path fill="#52bf16" d=" M 239.71 77.75 C 249.58 72.02 261.68 70.57 272.76 73.07 C 277.57 74.27 282.17 77.04 284.67 81.44 C 288.19 87.33 287.99 94.43 288.12 101.05 C 288.05 110.36 288.24 119.67 287.96 128.98 C 288.13 133.51 288.31 138.06 287.58 142.56 C 284.34 142.67 280.69 143.73 277.73 142.00 C 276.99 139.75 277.41 137.32 277.33 135.00 C 272.37 139.13 266.79 143.40 260.09 143.76 C 254.24 144.06 247.98 144.14 242.84 140.91 C 231.14 134.61 230.25 115.63 241.17 108.11 C 251.21 101.20 263.98 101.91 275.60 101.85 C 275.84 96.45 276.20 90.17 272.23 85.91 C 268.66 81.97 262.92 82.15 258.05 82.35 C 252.07 82.60 246.71 85.55 241.57 88.33 C 240.34 89.13 238.90 88.67 237.56 88.65 C 236.45 84.96 235.93 80.10 239.71 77.75 Z" />
<path fill="#52bf16" d=" M 333.19 72.93 C 338.07 71.41 343.63 71.61 348.25 73.90 C 349.09 77.43 348.58 81.11 348.49 84.70 C 343.96 85.14 339.59 81.97 335.09 83.74 C 329.19 86.41 326.12 92.48 322.50 97.49 C 322.36 112.40 322.70 127.33 322.31 142.23 C 318.47 143.37 314.47 143.28 310.58 142.50 C 309.31 137.74 310.33 132.82 309.97 127.97 C 310.13 109.80 309.61 91.62 310.40 73.47 C 313.69 72.89 317.15 72.46 320.39 73.57 C 322.30 76.60 321.04 80.51 321.29 83.91 C 324.80 79.83 328.04 75.09 333.19 72.93 Z" />
<path fill="#52bf16" d=" M 391.24 72.18 C 396.93 71.45 403.16 72.25 407.95 75.60 C 410.88 77.63 412.75 80.71 414.61 83.68 C 416.44 83.72 417.40 81.68 418.78 80.73 C 424.58 74.99 432.58 70.60 440.99 72.13 C 448.63 72.46 455.26 78.13 457.89 85.12 C 459.91 90.15 459.95 95.67 460.13 101.01 C 459.85 109.34 460.24 117.67 460.05 126.01 C 459.91 131.51 460.59 137.07 459.59 142.52 C 455.66 142.99 451.64 143.23 447.77 142.25 C 447.62 128.14 447.79 114.04 447.69 99.93 C 447.47 94.96 446.92 89.42 443.31 85.64 C 439.27 81.04 431.60 81.31 427.05 85.00 C 423.40 87.85 419.77 91.11 417.42 95.10 C 417.19 110.10 417.44 125.11 417.31 140.11 C 417.55 141.43 416.55 142.78 415.17 142.70 C 411.98 143.43 408.72 143.04 405.54 142.51 C 404.16 138.10 405.34 133.53 405.09 129.03 C 405.00 123.03 405.42 117.02 404.90 111.03 C 404.48 103.32 405.98 94.93 402.09 87.87 C 399.16 82.13 391.12 80.65 385.85 83.90 C 381.33 86.57 377.93 90.67 374.56 94.60 C 374.33 109.73 374.57 124.88 374.45 140.02 C 374.71 141.60 373.26 142.83 371.79 142.83 C 368.72 143.19 365.19 143.64 362.44 141.95 C 361.66 139.69 361.93 137.28 361.92 134.94 C 361.95 115.61 361.86 96.28 361.95 76.96 C 362.06 75.79 362.23 74.62 362.44 73.47 C 365.74 73.07 369.25 72.32 372.45 73.62 C 374.14 76.39 373.05 79.94 373.35 83.04 C 378.42 78.24 384.00 73.07 391.24 72.18 Z" />
<path fill="#52bf16" d=" M 32.46 85.57 C 33.50 85.52 34.55 85.48 35.60 85.44 C 35.61 85.78 35.63 86.46 35.64 86.81 C 35.59 88.87 35.60 90.94 35.36 92.99 C 34.95 95.83 33.13 98.26 32.77 101.12 C 32.76 103.42 34.16 105.39 35.40 107.22 C 40.23 110.00 46.78 110.18 51.60 107.28 C 52.36 106.02 53.52 104.75 53.43 103.18 C 52.78 102.08 51.90 101.14 51.10 100.16 C 51.28 97.87 52.15 95.78 53.57 93.99 C 53.14 94.07 52.28 94.23 51.85 94.32 C 57.10 91.68 65.52 95.48 65.24 101.98 C 64.60 108.37 58.91 113.47 52.98 115.12 C 47.23 116.55 41.16 117.19 35.41 115.38 C 28.38 113.55 22.73 106.44 23.63 99.02 C 23.99 93.28 28.04 88.80 32.46 85.57 Z" />
<path fill="#ffffff" d=" M 35.64 86.81 C 35.97 93.60 35.43 100.42 35.40 107.22 C 34.16 105.39 32.76 103.42 32.77 101.12 C 33.13 98.26 34.95 95.83 35.36 92.99 C 35.60 90.94 35.59 88.87 35.64 86.81 Z" />
<path fill="#ffffff" d=" M 51.60 107.28 C 49.72 105.22 50.85 102.17 50.68 99.67 L 51.10 100.16 C 51.90 101.14 52.78 102.08 53.43 103.18 C 53.52 104.75 52.36 106.02 51.60 107.28 Z" />
<path fill="#ffffff" d=" M 138.36 118.43 C 140.57 114.03 145.60 112.26 150.17 111.57 C 155.68 110.94 161.25 110.92 166.79 111.11 C 166.65 115.65 166.97 120.20 166.62 124.73 C 163.73 128.77 159.60 132.13 154.95 133.96 C 150.34 135.30 144.77 135.37 140.89 132.18 C 136.95 128.94 136.25 122.87 138.36 118.43 Z" />
<path fill="#ffffff" d=" M 251.29 114.23 C 258.68 109.94 267.58 111.42 275.73 111.16 C 275.46 115.84 276.23 120.66 275.38 125.25 C 272.26 129.02 268.32 132.30 263.76 134.16 C 259.57 135.01 254.79 135.32 251.02 132.95 C 244.47 129.09 244.57 117.90 251.29 114.23 Z" />
<path fill="#52bf16" d=" M 27.46 120.01 C 27.53 118.05 27.02 115.61 28.85 114.25 C 31.81 114.09 35.66 116.09 35.53 119.44 C 35.26 122.86 37.71 125.67 40.51 127.27 C 43.69 128.79 47.30 128.78 50.73 129.27 C 54.46 129.75 59.73 131.21 59.85 135.79 C 56.81 135.54 53.87 134.74 50.91 134.05 C 45.35 132.46 39.36 132.66 34.03 130.21 C 30.21 128.40 27.27 124.35 27.46 120.01 Z" />
<path fill="#838882" d=" M 35.41 115.38 C 41.16 117.19 47.23 116.55 52.98 115.12 C 52.23 115.70 51.51 116.32 50.82 116.97 C 50.47 121.06 50.79 125.17 50.73 129.27 C 47.30 128.78 43.69 128.79 40.51 127.27 C 37.71 125.67 35.26 122.86 35.53 119.44 C 35.60 118.08 35.63 116.72 35.41 115.38 Z" />
<path fill="#838882" d=" M 34.03 130.21 C 39.36 132.66 45.35 132.46 50.91 134.05 C 50.71 136.91 50.61 139.78 50.58 142.65 C 46.31 144.27 41.70 143.57 37.26 143.56 C 33.32 140.01 37.56 133.97 34.03 130.21 Z" />
</svg>
