<svg id="Layer_1" data-name="Layer 1" xmlns="http://www.w3.org/2000/svg" viewBox="0 0 16.41 16.41"><defs><style>.cls-1{fill:#2bb673;}.cls-2{fill:#fff;}</style></defs><circle class="cls-1" cx="438.62" cy="24.6" r="8.2" transform="translate(-122.44 427.64) rotate(-75.91)"/><path class="cls-2" d="M443.69,27.23a1.17,1.17,0,0,0-.52-0.36l-0.37-.2-0.43-.24L442,26.22l-0.17-.12L441.6,26a0.45,0.45,0,0,0-.19,0,0.57,0.57,0,0,0-.34.19,3.32,3.32,0,0,0-.37.42,4.11,4.11,0,0,1-.36.42,0.52,0.52,0,0,1-.31.19l-0.15,0L439.72,27l-0.16-.1-0.13-.08a6.75,6.75,0,0,1-2.79-2.79L436.57,24l-0.1-.16-0.06-.14a0.46,0.46,0,0,1,0-.15,0.52,0.52,0,0,1,.19-0.31,4.1,4.1,0,0,1,.42-0.36,3.31,3.31,0,0,0,.42-0.37,0.57,0.57,0,0,0,.19-0.34,0.44,0.44,0,0,0,0-.19,1.89,1.89,0,0,0-.15-0.24l-0.12-.17-0.21-.36-0.24-.43-0.2-.37a1.17,1.17,0,0,0-.36-0.52l-0.14,0a2.24,2.24,0,0,0-.48.07,2.7,2.7,0,0,0-.47.14,1.83,1.83,0,0,0-.72.83,2.52,2.52,0,0,0-.32,1.62,2.94,2.94,0,0,0,.09.39q0.06,0.22.1,0.32l0.14,0.38,0.12,0.33a6.17,6.17,0,0,0,.57,1.19,11.44,11.44,0,0,0,3.27,3.27,6.18,6.18,0,0,0,1.19.57L440,29l0.38,0.14,0.32,0.1L441,29.37l0.36,0a2.64,2.64,0,0,0,1.27-.35,1.82,1.82,0,0,0,.83-0.72,2.68,2.68,0,0,0,.14-0.47,2.24,2.24,0,0,0,.07-0.48A0.38,0.38,0,0,0,443.69,27.23Z" transform="translate(-430.42 -16.39)"/></svg>